<?xml version="1.0" standalone="no"?>
<!DOCTYPE svg PUBLIC "-//W3C//DTD SVG 20010904//EN"
 "http://www.w3.org/TR/2001/REC-SVG-20010904/DTD/svg10.dtd">
<svg version="1.0" xmlns="http://www.w3.org/2000/svg"
 width="992.000000pt" height="1056.000000pt" viewBox="0 0 992.000000 1056.000000"
 preserveAspectRatio="xMidYMid meet">

<g transform="translate(0.000000,1056.000000) scale(0.100000,-0.100000)"
fill="#000000" stroke="none">
<path d="M0 5280 l0 -5280 4960 0 4960 0 0 5280 0 5280 -4960 0 -4960 0 0
-5280z m4953 713 c9 -89 9 -812 0 -975 l-6 -128 -149 0 -148 0 0 210 0 210
-80 0 -80 0 -2 -207 -3 -208 -150 0 -150 0 -3 570 c-1 314 0 576 3 583 3 9 89
12 383 12 l379 0 6 -67z m807 54 l25 -13 3 -243 c2 -234 2 -244 -19 -278 l-22
-35 22 -28 c20 -28 21 -40 21 -273 0 -194 -3 -247 -14 -263 -14 -18 -31 -19
-384 -22 l-369 -3 -6 137 c-9 176 -9 844 0 952 l6 82 356 0 c267 0 362 -3 381
-13z m-773 -329 c-3 -8 -6 -5 -6 6 -1 11 2 17 5 13 3 -3 4 -12 1 -19z m6 -38
c-3 -11 -7 -20 -9 -20 -2 0 -4 9 -4 20 0 11 4 20 9 20 5 0 7 -9 4 -20z m4
-269 c6 -117 -2 -186 -18 -175 -10 6 -12 204 -2 262 9 54 15 29 20 -87z
m-1872 -821 c8 -12 -173 -220 -191 -220 -31 0 -18 23 66 116 49 54 89 102 90
107 0 11 28 9 35 -3z m150 1 c9 -16 -177 -221 -201 -221 -25 0 -16 16 59 101
40 46 82 94 92 107 20 23 40 28 50 13z m143 1 c9 -6 -13 -38 -80 -115 -83 -94
-128 -128 -128 -96 0 12 179 219 189 219 3 0 12 -4 19 -8z m154 -7 c0 -5 -39
-56 -88 -112 -63 -72 -96 -102 -112 -102 -13 -1 -22 3 -20 8 2 5 45 57 97 116
84 94 120 121 123 90z m152 6 c10 -15 -183 -221 -206 -221 -11 0 -18 4 -16 9
7 22 192 221 204 221 7 0 15 -4 18 -9z m150 0 c9 -14 -177 -216 -203 -219 -13
-2 -22 1 -20 7 8 21 193 221 205 221 7 0 15 -4 18 -9z m143 1 c17 -11 -166
-216 -196 -220 -13 -2 -22 1 -20 7 5 15 189 221 197 221 4 0 12 -4 19 -8z
m142 -1 c18 -12 -163 -221 -192 -221 -10 0 -17 5 -15 11 4 13 181 218 188 218
3 0 11 -3 19 -8z m150 0 c12 -7 -6 -32 -79 -113 -52 -57 -95 -104 -96 -106 -1
-2 -13 -2 -25 0 -21 3 -12 15 76 115 55 62 102 112 105 112 3 1 11 -3 19 -8z
m149 0 c18 -11 -171 -221 -199 -221 -12 0 -19 4 -17 9 4 14 190 221 197 221 3
0 12 -4 19 -9z m156 0 c9 -13 -183 -221 -205 -221 -10 0 -19 4 -19 8 0 14 193
222 206 222 7 0 15 -4 18 -9z m143 1 c17 -10 -172 -222 -198 -222 -10 0 -19 4
-19 8 0 10 190 222 199 222 3 0 11 -4 18 -8z m148 -2 c10 -16 -174 -220 -197
-220 -29 0 -20 15 78 127 86 99 106 114 119 93z m146 2 c24 -10 -161 -216
-198 -220 l-26 -4 22 29 c39 48 176 201 181 202 3 0 12 -3 21 -7z m153 -1 c3
-5 -36 -56 -87 -114 -66 -76 -99 -106 -115 -106 -13 -1 -22 3 -20 8 7 20 194
221 205 221 6 0 14 -4 17 -9z m150 0 c3 -4 -23 -39 -57 -77 -34 -39 -76 -87
-94 -107 -29 -33 -80 -53 -71 -27 7 21 192 220 204 220 7 0 15 -4 18 -9z m150
1 c8 -14 -184 -222 -205 -222 -10 0 -19 3 -19 6 0 8 94 119 154 182 39 41 59
51 70 34z m150 0 c9 -14 -183 -222 -204 -222 -11 0 -20 3 -20 8 0 4 43 55 96
115 88 99 115 120 128 99z m143 -7 c5 -17 -171 -210 -195 -213 -12 -2 -22 1
-22 5 0 5 40 54 90 109 49 54 89 103 90 107 0 12 33 4 37 -8z m153 4 c0 -22
-181 -219 -202 -219 -11 0 -18 5 -16 11 2 6 44 57 93 114 80 92 125 126 125
94z m139 2 c15 -9 8 -18 -151 -193 -17 -19 -34 -28 -47 -26 -19 3 -8 19 76
115 54 62 100 112 103 113 3 0 11 -4 19 -9z m149 0 c21 -13 -164 -221 -196
-221 -21 0 -22 2 -10 19 20 28 182 210 188 210 3 1 11 -3 18 -8z m150 1 c17
-11 -171 -222 -199 -222 -10 0 -19 3 -19 6 0 7 193 224 200 224 3 0 11 -4 18
-8z m150 -1 c18 -11 -172 -221 -200 -221 -11 0 -18 4 -16 9 5 15 189 221 196
221 4 0 13 -4 20 -9z m147 -9 c0 -22 -176 -212 -196 -212 -10 0 -19 3 -19 8 0
4 43 56 96 115 87 98 119 122 119 89z m144 9 c11 -7 -7 -33 -78 -115 -104
-119 -102 -118 -120 -106 -11 6 -10 14 8 37 37 46 166 192 171 192 3 0 11 -3
19 -8z m156 -1 c9 -15 -184 -230 -201 -223 -8 3 -14 9 -14 13 0 4 35 47 78 95
42 48 83 96 91 106 15 21 36 25 46 9z m35 -550 l0 -30 -2055 0 -2055 0 0 30 0
30 2055 0 2055 0 0 -30z m2355 -3269 c16 -74 120 -178 198 -197 35 -8 35 -21
-2 -29 -74 -16 -178 -120 -197 -197 -8 -36 -21 -36 -29 1 -16 74 -120 178
-197 197 -36 8 -36 21 1 29 74 16 178 120 197 198 8 35 21 35 29 -2z"/>
<path d="M4250 5480 l0 -520 90 0 90 0 0 210 0 210 140 0 140 0 0 -210 0 -210
90 0 90 0 0 520 0 520 -320 0 -320 0 0 -520z m460 210 l0 -130 -139 0 -138 0
-8 120 c-3 65 -4 124 0 130 4 6 60 10 146 10 l139 0 0 -130z"/>
<path d="M4490 5690 l0 -60 81 0 80 0 -3 60 -3 60 -35 0 c-24 0 -31 -3 -21 -9
9 -6 11 -15 6 -27 -5 -11 -7 -25 -6 -31 1 -7 -6 -13 -17 -13 -10 0 -23 -5 -29
-11 -22 -22 -43 -2 -43 40 0 29 5 41 18 44 13 4 11 5 -5 6 -21 1 -23 -3 -23
-59z"/>
<path d="M5087 5993 c-7 -7 -10 -1027 -3 -1034 2 -2 149 -3 325 -1 l321 3 0
222 0 222 -31 38 -31 37 31 39 31 39 0 215 c0 187 -2 216 -16 221 -21 8 -619
8 -627 -1z m463 -298 l0 -125 -145 0 -145 0 0 125 0 125 145 0 145 0 0 -125z
m0 -440 l0 -125 -145 0 -145 0 0 125 0 125 145 0 145 0 0 -125z"/>
<path d="M5330 5690 l0 -60 78 2 c42 0 61 3 42 5 -41 5 -71 29 -63 49 3 8 0
21 -7 29 -9 10 -9 15 -1 15 6 0 11 5 11 10 0 6 -13 10 -30 10 l-30 0 0 -60z"/>
<path d="M5330 5254 c0 -56 2 -65 16 -60 9 3 28 6 42 6 19 0 23 3 14 9 -10 6
-8 10 10 15 l23 7 -22 9 c-13 5 -23 15 -23 21 0 11 -45 59 -56 59 -2 0 -4 -30
-4 -66z"/>
</g>
</svg>
