<?xml version="1.0" standalone="no"?>
<!DOCTYPE svg PUBLIC "-//W3C//DTD SVG 20010904//EN"
 "http://www.w3.org/TR/2001/REC-SVG-20010904/DTD/svg10.dtd">
<svg version="1.0" xmlns="http://www.w3.org/2000/svg"
 width="508.000000pt" height="508.000000pt" viewBox="0 0 508.000000 508.000000"
 preserveAspectRatio="xMidYMid meet">

<g transform="translate(0.000000,508.000000) scale(0.100000,-0.100000)"
fill="#000000" stroke="none">
<path d="M1780 2660 l0 -580 145 0 145 0 2 208 3 207 82 3 83 3 2 -208 3 -208
148 -3 147 -3 0 581 0 580 -380 0 -380 0 0 -580z m700 0 l0 -520 -90 0 -90 0
0 210 0 210 -145 0 -145 0 0 -210 0 -210 -85 0 -85 0 0 520 0 520 320 0 320 0
0 -520z"/>
<path d="M2014 3001 c-2 -2 -4 -60 -4 -128 l0 -123 145 0 145 0 0 125 0 125
-107 1 c-60 1 -123 2 -141 3 -18 1 -35 -1 -38 -3z m226 -126 l0 -65 -85 0 -85
0 0 65 0 65 85 0 85 0 0 -65z"/>
<path d="M2610 2660 l0 -580 369 0 370 0 15 22 c13 19 16 62 16 264 0 242 0
242 -24 271 l-25 29 24 30 c24 29 24 31 25 270 0 221 -2 242 -18 257 -17 15
-58 17 -385 17 l-367 0 0 -580z m710 301 l0 -218 -30 -38 -30 -38 30 -40 30
-41 0 -223 0 -223 -325 0 -325 0 0 520 0 520 325 0 325 0 0 -219z"/>
<path d="M2893 3003 l-43 -4 0 -125 0 -124 145 0 146 0 -3 128 -3 127 -100 1
c-55 0 -119 -1 -142 -3z m187 -128 l0 -65 -85 0 -85 0 0 65 0 65 85 0 85 0 0
-65z"/>
<path d="M2850 2445 l0 -125 145 0 146 0 -3 123 -3 122 -142 3 -143 3 0 -126z
m225 -5 l0 -65 -82 -3 -83 -3 0 71 0 71 83 -3 82 -3 0 -65z"/>
<path d="M590 1681 c-84 -98 -100 -126 -69 -126 16 0 199 199 199 216 0 5 -10
9 -22 8 -16 0 -49 -31 -108 -98z"/>
<path d="M740 1680 c-88 -102 -106 -135 -74 -128 22 4 206 207 198 219 -14 23
-46 0 -124 -91z"/>
<path d="M888 1678 c-86 -99 -105 -133 -71 -126 20 4 204 209 197 220 -14 22
-47 -2 -126 -94z"/>
<path d="M1032 1674 c-87 -99 -100 -124 -67 -124 17 0 205 211 199 222 -14 23
-48 -2 -132 -98z"/>
<path d="M1182 1674 c-87 -98 -100 -124 -67 -124 16 0 195 199 195 218 0 35
-44 3 -128 -94z"/>
<path d="M1335 1679 c-50 -56 -90 -107 -90 -113 0 -35 40 -7 120 84 95 107
109 130 78 130 -11 0 -56 -42 -108 -101z"/>
<path d="M1484 1679 c-90 -102 -103 -124 -72 -124 19 0 198 192 198 213 0 35
-44 3 -126 -89z"/>
<path d="M1649 1698 c-40 -46 -82 -93 -93 -106 -22 -25 -10 -51 16 -36 23 14
188 200 188 213 0 32 -45 3 -111 -71z"/>
<path d="M1773 1672 c-57 -65 -89 -110 -84 -115 5 -5 16 -7 24 -4 17 7 197
206 197 219 0 4 -10 8 -22 7 -16 0 -51 -32 -115 -107z"/>
<path d="M1922 1675 c-87 -97 -102 -125 -67 -125 13 0 205 208 205 223 0 4
-10 7 -22 6 -16 0 -53 -34 -116 -104z"/>
<path d="M2075 1679 c-49 -56 -90 -106 -90 -112 0 -36 39 -8 122 85 50 57 93
108 95 113 1 6 -6 11 -17 13 -14 1 -46 -27 -110 -99z"/>
<path d="M2225 1679 c-95 -107 -108 -129 -78 -129 16 0 208 202 208 219 0 3
-9 7 -20 9 -14 2 -45 -25 -110 -99z"/>
<path d="M2375 1680 c-94 -104 -110 -130 -78 -130 18 0 203 199 203 219 0 32
-45 0 -125 -89z"/>
<path d="M2521 1678 c-90 -101 -108 -132 -72 -126 18 3 201 202 201 219 0 5
-9 9 -19 9 -12 0 -54 -39 -110 -102z"/>
<path d="M2745 1766 c-6 -7 -47 -55 -92 -106 -78 -89 -89 -110 -58 -110 14 0
205 207 205 222 0 13 -44 9 -55 -6z"/>
<path d="M2883 1756 c-10 -13 -51 -60 -91 -105 -68 -77 -80 -101 -47 -101 12
0 196 199 203 221 8 20 -47 8 -65 -15z"/>
<path d="M2962 1675 c-86 -99 -100 -125 -68 -125 13 0 190 193 198 215 1 6 -6
11 -17 13 -15 2 -45 -25 -113 -103z"/>
<path d="M3112 1675 c-87 -98 -102 -125 -67 -125 16 0 195 199 195 218 0 33
-44 2 -128 -93z"/>
<path d="M3262 1674 c-87 -99 -100 -124 -67 -124 16 0 195 199 195 218 0 35
-44 3 -128 -94z"/>
<path d="M3411 1675 c-86 -97 -100 -125 -67 -125 15 0 196 202 196 219 0 34
-46 0 -129 -94z"/>
<path d="M3579 1698 c-40 -46 -82 -93 -93 -106 -22 -25 -10 -51 16 -36 30 18
189 204 183 214 -14 22 -36 7 -106 -72z"/>
<path d="M3710 1678 c-88 -99 -105 -128 -76 -128 16 0 199 193 204 216 2 8 -4
14 -17 14 -13 0 -52 -36 -111 -102z"/>
<path d="M3853 1672 c-57 -65 -89 -110 -84 -115 5 -5 16 -7 24 -4 18 7 197
204 197 217 0 5 -10 10 -22 9 -16 0 -51 -32 -115 -107z"/>
<path d="M4002 1674 c-86 -99 -100 -124 -67 -124 17 0 206 210 199 221 -14 23
-47 -1 -132 -97z"/>
<path d="M4152 1675 c-87 -98 -102 -125 -67 -125 16 0 195 199 195 218 0 33
-44 2 -128 -93z"/>
<path d="M4305 1679 c-50 -56 -90 -107 -90 -113 0 -35 40 -7 120 84 95 107
109 130 78 130 -11 0 -56 -42 -108 -101z"/>
<path d="M4451 1675 c-85 -96 -100 -125 -67 -125 15 0 190 193 194 215 2 9 -4
15 -16 15 -11 0 -55 -41 -111 -105z"/>
<path d="M500 1230 l0 -30 2056 0 2055 0 -3 28 -3 27 -2052 3 -2053 2 0 -30z"/>
</g>
</svg>
